<?xml version="1.0" encoding="UTF-8" standalone="no"?>
<!-- Created with Inkscape (http://www.inkscape.org/) -->

<svg
   version="1.1"
   id="svg1"
   width="1024"
   height="1024"
   viewBox="0 0 1024 1024"
   xmlns:xlink="http://www.w3.org/1999/xlink"
   xmlns="http://www.w3.org/2000/svg"
   xmlns:svg="http://www.w3.org/2000/svg">
  <defs
     id="defs1">
    <linearGradient
       id="linearGradient1">
      <stop
         style="stop-color:#9d4edd;stop-opacity:1;"
         offset="0"
         id="stop5" />
      <stop
         style="stop-color:#4a00e0;stop-opacity:0.58039218;"
         offset="1"
         id="stop6" />
    </linearGradient>
    <linearGradient
       xlink:href="#linearGradient1"
       id="linearGradient2"
       x1="297.86911"
       y1="492.6893"
       x2="750.70593"
       y2="492.6893"
       gradientUnits="userSpaceOnUse" />
  </defs>
  <g
     id="g1">
    <path
       style="mix-blend-mode:normal;fill:url(#linearGradient2)"
       d="m 520.05894,804.34229 c -24.06338,-21.951 -41.53669,-50.55704 -64.21767,-74.10719 -48.45531,-57.81918 -99.39964,-114.14066 -140.6653,-177.47625 -9.9223,-14.05198 -34.11656,-61.88462 1.3597,-50.29523 68.3151,30.3608 130.65537,72.7072 198.37516,104.238 38.91672,12.09426 73.33943,-20.84148 93.48155,-50.40929 19.92218,-35.53078 58.80689,-59.55753 100.01413,-57.1716 21.13899,-5.34478 57.20776,1.63084 35.68039,29.26316 -51.85926,102.72671 -140.98637,178.63916 -208.51081,270.23622 -3.61647,4.41651 -9.41235,9.65893 -15.51715,5.72218 z M 395.55889,521.06989 c -33.55621,-16.61092 -53.73893,-60.60309 -37.21855,-96.0004 29.06703,-52.69903 65.3826,-101.19119 96.64985,-152.64874 20.42244,-30.32124 37.32992,-63.37805 59.97247,-91.96283 27.48348,-7.18249 35.8073,35.35598 51.72107,51.52637 41.18904,66.59895 85.49912,131.24586 126.1526,198.16261 13.19117,38.25953 -37.33108,7.86079 -52.93271,-0.40736 -32.35035,-15.55378 -63.50997,-33.75725 -96.49912,-47.86119 -29.48721,-0.0148 -40.90065,34.76015 -56.90706,54.39275 -19.19928,26.60114 -32.62395,58.58926 -57.93855,80.13044 -9.47326,6.88142 -21.99448,7.57329 -33,4.66835 z"
       id="path1" />
  </g>
</svg>
